<svg width="156" height="155" fill="none" xmlns="http://www.w3.org/2000/svg"><g clip-path="url(#a)" fill="#000"><path d="M25.68 126.198c-1.704 1.331-3.341 1.91-4.909 1.736-1.567-.175-2.968-1.099-4.2-2.774-1.23-1.672-1.72-3.311-1.459-4.911.258-1.6 1.242-3.067 2.946-4.398l10.956-8.554c1.705-1.331 3.342-1.91 4.91-1.733 1.567.174 2.968 1.099 4.199 2.774 1.231 1.675 1.72 3.311 1.46 4.911-.258 1.602-1.24 3.067-2.947 4.398l-10.956 8.554v-.003zm8.655-12.127c.763-.596 1.183-1.174 1.255-1.739.076-.562-.086-1.112-.481-1.65-.395-.537-.866-.844-1.414-.921-.546-.078-1.202.18-1.965.778l-11.378 8.883c-.764.595-1.18 1.173-1.256 1.738-.075.565.086 1.113.482 1.65.395.537.868.844 1.414.922.548.077 1.201-.183 1.965-.778l11.378-8.883zM9.368 112.617l-4.868-13 3.726-1.47 1.647 4.396 22.348-8.816 1.573 4.207-22.347 8.817 1.647 4.396-3.726 1.47zM8.796 91.317c-2.312.206-4.137-.235-5.478-1.323-1.338-1.085-2.104-2.757-2.294-5.007-.19-2.25.283-4.032 1.417-5.337 1.137-1.306 2.86-2.063 5.171-2.265l14.853-1.318c2.311-.205 4.14.236 5.477 1.32 1.338 1.086 2.105 2.757 2.294 5.01.19 2.254-.28 4.033-1.416 5.338-1.137 1.305-2.86 2.062-5.172 2.265L8.796 91.317zm14.75-5.93c1.035-.093 1.743-.373 2.128-.84.385-.469.548-1.065.487-1.789-.061-.724-.32-1.281-.778-1.675-.458-.393-1.204-.545-2.24-.453L7.72 81.998c-1.035.093-1.743.373-2.128.84-.385.469-.548 1.065-.487 1.789.061.724.32 1.281.778 1.675.458.393 1.205.545 2.24.452l15.423-1.368zM2.155 68.507l.627-4.294 27.495 3.969-.627 4.295-27.495-3.97zM4.5 57.436l4.504-13.293 3.591 1.441-1.523 4.496 21.55 8.652-1.458 4.3-21.55-8.651-1.523 4.496L4.5 57.436zM12.701 39.172l2.33-3.293L38.48 49.116l-2.33 3.29L12.701 39.17v.003zM25.416 31.766c-1.429-1.548-2.153-3.114-2.169-4.697-.015-1.582.683-3.086 2.096-4.51 1.413-1.423 2.878-2.095 4.394-2.022 1.516.072 2.988.883 4.42 2.43l9.185 9.94c1.43 1.548 2.153 3.115 2.168 4.697.016 1.586-.683 3.087-2.096 4.51-1.413 1.424-2.877 2.099-4.393 2.023-1.517-.073-2.989-.883-4.42-2.43l-9.185-9.941zM37.657 39c.64.691 1.224 1.042 1.754 1.053.53.01 1.025-.214 1.478-.67.453-.456.685-.961.696-1.518.01-.553-.305-1.177-.944-1.868L31.1 25.673c-.64-.691-1.224-1.042-1.757-1.053-.53-.01-1.025.213-1.478.67-.453.456-.686.961-.696 1.515-.01.556.305 1.177.944 1.869l9.54 10.324.003.003zM34.967 14.603 45.64 7.545l1.838 3.55-3.611 2.387 11.019 21.292-3.453 2.285-11.019-21.291-3.61 2.387-1.838-3.55.002-.002zM63.176 8.264c-.274-2.23.085-4.01 1.081-5.342.993-1.329 2.566-2.125 4.714-2.384 2.149-.26 3.867.14 5.156 1.199 1.287 1.058 2.07 2.7 2.343 4.93l1.76 14.326c.275 2.23-.085 4.01-1.08 5.342-.994 1.332-2.566 2.125-4.715 2.385-2.148.256-3.866-.141-5.153-1.2-1.287-1.058-2.069-2.7-2.343-4.93L63.182 8.264h-.006zm6.17 14.076c.122.998.413 1.673.875 2.031.462.359 1.036.494 1.727.412.69-.082 1.215-.353 1.577-.807.36-.457.48-1.182.357-2.178L72.056 6.92c-.123-.996-.414-1.674-.876-2.032-.463-.358-1.036-.494-1.727-.412-.69.082-1.215.353-1.577.807-.363.457-.48 1.182-.36 2.181l1.826 14.877.003-.002zM83.64.461l13.426 2.18-.632 4.01-4.543-.738-3.785 24.063-4.344-.706 3.786-24.062-4.543-.737.632-4.01h.003zM102.947 10.84c.953-2.106 2.197-3.475 3.732-4.101 1.535-.626 3.268-.468 5.199.477 1.933.945 3.153 2.232 3.668 3.862.514 1.629.295 3.498-.658 5.605l-6.123 13.539c-.953 2.11-2.196 3.475-3.731 4.102-1.536.625-3.268.468-5.197-.477-1.932-.945-3.155-2.233-3.67-3.862-.515-1.63-.295-3.499.658-5.605l6.122-13.54zm-2.306 15.725c-.427.942-.54 1.697-.346 2.261.197.565.602 1.001 1.224 1.302.618.304 1.2.354 1.743.15.543-.205 1.026-.776 1.454-1.72l6.355-14.06c.425-.942.541-1.697.346-2.262-.197-.565-.604-1-1.223-1.302-.622-.304-1.201-.354-1.743-.15-.543.206-1.03.78-1.454 1.721l-6.356 14.06zM124.25 15.809l3.283 2.627-16.636 20.984-3.284-2.623 16.637-20.985v-.003zM133.411 24.073l8.182 9.984-2.91 2.43-2.768-3.376-17.454 14.574-2.647-3.23 17.455-14.575-2.768-3.377 2.91-2.43zM145.407 39.42l2.045 3.822-24.904 12.707-2.046-3.822 24.905-12.707zM144.651 53.929c2.179-.568 3.991-.427 5.433.417 1.443.847 2.422 2.352 2.941 4.516.52 2.164.331 3.972-.558 5.425-.892 1.452-2.428 2.46-4.61 3.028l-14.006 3.64c-2.182.567-3.991.426-5.434-.418-1.442-.846-2.422-2.349-2.941-4.513-.519-2.164-.333-3.972.559-5.424.892-1.453 2.428-2.461 4.609-3.029l14.007-3.64v-.002zm-13.219 8.12c-.974.253-1.612.638-1.911 1.156-.299.517-.364 1.123-.198 1.817.167.694.497 1.196.997 1.508.497.312 1.233.338 2.207.085l14.546-3.78c.973-.254 1.611-.639 1.91-1.156.3-.518.365-1.123.198-1.817-.167-.694-.5-1.197-.994-1.508-.496-.312-1.233-.342-2.207-.086l-14.545 3.781h-.003zM155.623 71.299l.031 12.975-4.014.008-.011-4.389-24.085.055-.012-4.2 24.085-.054-.011-4.39 4.014-.008.003.003zM145.374 100.42c2.023.91 3.356 2.15 4 3.717.644 1.568.553 3.363-.274 5.391-.826 2.027-2.001 3.336-3.522 3.924-1.523.588-3.295.425-5.316-.486l-12.992-5.861c-2.024-.914-3.356-2.153-4-3.718-.644-1.565-.553-3.363.273-5.39.827-2.028 2.002-3.337 3.522-3.924 1.521-.588 3.295-.425 5.316.485l12.996 5.862h-.003zm-14.928-1.841c-.904-.408-1.62-.5-2.148-.28-.528.221-.923.658-1.188 1.31-.266.651-.293 1.253-.081 1.809.213.555.769 1.035 1.673 1.442l13.493 6.089c.904.407 1.62.5 2.148.279.528-.224.923-.657 1.188-1.309.266-.652.293-1.254.083-1.809-.21-.556-.768-1.036-1.672-1.443l-13.493-6.088h-.003zM141.593 121.988l-8.153 9.518-2.913-2.305 2.757-3.218-17.47-13.829 2.64-3.079 17.469 13.829 2.757-3.218 2.913 2.305v-.003zM123.672 132.473c1.209 1.83 1.694 3.559 1.46 5.179-.235 1.62-1.187 3.036-2.852 4.244-1.665 1.209-3.263 1.643-4.791 1.304-1.532-.338-2.9-1.424-4.109-3.257l-7.766-11.765c-1.208-1.833-1.694-3.559-1.459-5.179.238-1.623 1.187-3.039 2.852-4.245 1.665-1.209 3.262-1.642 4.791-1.304 1.531.339 2.9 1.424 4.109 3.257l7.765 11.766zm-11.306-9.53c-.541-.82-1.08-1.282-1.619-1.383-.539-.103-1.075.04-1.609.429-.533.389-.851.864-.947 1.429-.098.565.123 1.257.665 2.077l8.064 12.219c.542.819 1.081 1.278 1.62 1.382.539.103 1.075-.039 1.608-.428.534-.389.851-.865.947-1.43.099-.565-.122-1.257-.664-2.076l-8.065-12.219zM108.786 149.938l-4.036 1.638-10.025-26.697 4.035-1.637 10.026 26.696zM98.24 152.968l-13.413 2.149-.648-3.843 4.535-.727-3.89-23.068 4.34-.696 3.889 23.068 4.535-.727.649 3.847.003-.003zM77.017 155.115l-4.555-.19 1.304-26.961 4.555.192-1.304 26.961v-.002zM64.526 147.677c-.622 2.092-1.647 3.545-3.074 4.362-1.426.815-3.169.936-5.228.361-2.06-.574-3.469-1.575-4.229-3-.76-1.425-.827-3.184-.206-5.276l4-13.441c.621-2.093 1.647-3.548 3.073-4.363 1.426-.815 3.17-.935 5.229-.361 2.059.575 3.468 1.576 4.228 3.001.76 1.425.828 3.184.206 5.276l-4 13.441zm-.12-14.871c.28-.936.278-1.65 0-2.142-.279-.493-.75-.829-1.411-1.015-.661-.183-1.246-.142-1.754.131-.509.271-.902.876-1.178 1.811l-4.153 13.958c-.276.935-.276 1.649.003 2.141.28.493.752.829 1.413 1.015.66.183 1.245.14 1.754-.131.508-.271.9-.875 1.178-1.811l4.152-13.957h-.003zM45.71 148.034l-10.745-6.719 1.83-3.413 3.633 2.274 10.98-20.476 3.477 2.172-10.979 20.473 3.633 2.273-1.83 3.413v.003z"/></g><defs><clipPath id="a"><path fill="#fff" transform="translate(.5)" d="M0 0h155v155H0z"/></clipPath></defs></svg>