<svg width="46" height="40" fill="none" xmlns="http://www.w3.org/2000/svg"><path fill-rule="evenodd" clip-rule="evenodd" d="M5.71 0C2.56 0 0 2.56 0 5.71v28.546c0 3.15 2.56 5.71 5.71 5.71h34.256c3.149 0 5.71-2.56 5.71-5.71V5.71C45.675 2.56 43.114 0 39.965 0H5.709zM4 5a1 1 0 0 1 1-1h36a1 1 0 0 1 1 1v29a1 1 0 0 1-1 1H5a1 1 0 0 1-1-1V5zm30 3.565a1.565 1.565 0 0 0-2.012-1.499l-15.625 4.687c-.659.2-1.113.81-1.113 1.499v11.161a5.444 5.444 0 0 0-1.563-.225C11.1 24.188 9 25.936 9 28.094 9 30.252 11.1 32 13.688 32c2.587 0 4.687-1.748 4.687-3.906V17.93l12.5-3.75v7.11a5.447 5.447 0 0 0-1.563-.225c-2.587 0-4.687 1.747-4.687 3.905 0 2.159 2.1 3.906 4.688 3.906C31.9 28.875 34 27.128 34 24.97V8.564z" fill="#000"/></svg>