<svg width="45" height="41" fill="none" xmlns="http://www.w3.org/2000/svg"><path d="M39.097 5.248c.768 0 1.396.642 1.396 1.427v28.53l-.436-.58-11.869-15.701a2.072 2.072 0 0 0-3.316 0l-7.243 9.58-2.662-3.809a2.067 2.067 0 0 0-1.702-.892c-.68 0-1.309.33-1.702.901l-6.981 9.992-.393.553V6.675c0-.785.628-1.427 1.396-1.427h33.512zM5.585.966C2.505.966 0 3.526 0 6.676v28.546c0 3.15 2.505 5.71 5.585 5.71h33.512c3.08 0 5.585-2.56 5.585-5.71V6.675c0-3.149-2.504-5.71-5.585-5.71H5.585zm6.982 17.128c.55 0 1.095-.11 1.603-.326.508-.215.97-.53 1.359-.928s.698-.87.908-1.39a4.365 4.365 0 0 0 0-3.277 4.29 4.29 0 0 0-.908-1.389 4.183 4.183 0 0 0-1.36-.928 4.11 4.11 0 0 0-3.205 0c-.508.215-.97.53-1.36.928a4.29 4.29 0 0 0-.907 1.39 4.365 4.365 0 0 0 0 3.277c.21.52.519.991.908 1.389s.85.713 1.359.928a4.11 4.11 0 0 0 1.603.326z" fill="#000"/></svg>